PathFileType	4	(X/Y/Z)	RBDS023static.trc
DataRate	CameraRate	NumFrames	NumMarkers	Units	OrigDataRate	OrigDataStartFrame	OrigNumFrames
150.000000	150.000000	4	48	mm	150.000000	56	150
Frame#	Time	L.Ankle			L.Ankle.Medial			L.ASIS			L.GTR			L.Heel.Bottom			L.Heel.Lateral			L.Heel.Top			L.HF			L.Iliac.Crest			L.Knee			L.Knee.Medial			L.MT1			L.MT2			L.MT5			L.PSIS			L.Shank.Bottom.Lateral			L.Shank.Bottom.Medial			L.Shank.Top.Lateral			L.Shank.Top.Medial			L.Thigh.Bottom.Lateral			L.Thigh.Bottom.Medial			L.Thigh.Top.Lateral			L.Thigh.Top.Medial			L.TT			R.Ankle			R.Ankle.Medial			R.ASIS			R.GTR			R.Heel.Bottom			R.Heel.Lateral			R.Heel.Top			R.HF			R.Iliac.Crest			R.Knee			R.Knee.Medial			R.MT1			R.MT2			R.MT5			R.PSIS			R.Shank.Bottom.Lateral			R.Shank.Bottom.Medial			R.Shank.Top.Lateral			R.Shank.Top.Medial			R.Thigh.Bottom.Lateral			R.Thigh.Bottom.Medial			R.Thigh.Top.Lateral			R.Thigh.Top.Medial			R.TT			
		X1	Y1	Z1	X2	Y2	Z2	X3	Y3	Z3	X4	Y4	Z4	X5	Y5	Z5	X6	Y6	Z6	X7	Y7	Z7	X8	Y8	Z8	X9	Y9	Z9	X10	Y10	Z10	X11	Y11	Z11	X12	Y12	Z12	X13	Y13	Z13	X14	Y14	Z14	X15	Y15	Z15	X16	Y16	Z16	X17	Y17	Z17	X18	Y18	Z18	X19	Y19	Z19	X20	Y20	Z20	X21	Y21	Z21	X22	Y22	Z22	X23	Y23	Z23	X24	Y24	Z24	X25	Y25	Z25	X26	Y26	Z26	X27	Y27	Z27	X28	Y28	Z28	X29	Y29	Z29	X30	Y30	Z30	X31	Y31	Z31	X32	Y32	Z32	X33	Y33	Z33	X34	Y34	Z34	X35	Y35	Z35	X36	Y36	Z36	X37	Y37	Z37	X38	Y38	Z38	X39	Y39	Z39	X40	Y40	Z40	X41	Y41	Z41	X42	Y42	Z42	X43	Y43	Z43	X44	Y44	Z44	X45	Y45	Z45	X46	Y46	Z46	X47	Y47	Z47	X48	Y48	Z48	

57	0.3733333333333334	708.8718872070313	102.7068939208984	1034.666137695313	735.0447387695313	121.9958648681641	1117.4873046875	831.5379638671875	1063.92431640625	1125.878051757813	766.9988403320313	977.1524047851563	1063.106079101563	639.434326171875	41.34249877929688	1077.977905273438	668.7957153320313	61.47568893432617	1039.5234375	649.9051513671875	87.68678283691406	1080.200073242188	712.8251953125	481.4613037109375	1033.9931640625	750.2875366210938	1126.12158203125	1073.763549804688	725.1536254882813	553.1673583984375	1046.412963867188	716.6800537109375	529.2134399414063	1164.414916992188	860.6840209960938	53.48592758178711	1126.32763671875	872.4953002929688	69.55393981933594	1082.912719726563	834.9351806640625	45.1446533203125	1010.446594238281	647.2952880859375	1079.914794921875	1174.036376953125	714.4472045898438	178.8442687988281	1030.45751953125	672.1273193359375	171.4771118164063	1058.310180664063	697.6369018554688	257.974609375	1019.545837402344	655.3778686523438	254.7741394042969	1050.683959960938	735.3212280273438	713.11279296875	1031.527709960938	674.3248901367188	714.1058349609375	1069.462890625	734.6829833984375	823.3834228515625	1033.91455078125	679.3653564453125	824.2993774414063	1073.887573242188	771.7963256835938	462.8134155273438	1081.61669921875	698.5293579101563	105.0410614013672	1420.163330078125	731.3585815429688	123.0996780395508	1339.996337890625	826.4713134765625	1068.023193359375	1341.390014648438	747.2470703125	970.4522094726563	1402.984619140625	632.3336791992188	40.71508026123047	1373.819091796875	662.1451416015625	58.50122451782227	1416.950073242188	642.5504150390625	87.90262603759766	1373.419677734375	725.74072265625	492.925048828125	1416.638427734375	739.9453735351563	1139.806518554688	1380.1982421875	727.5446166992188	558.9048461914063	1409.905029296875	742.098876953125	538.76416015625	1291.75048828125	854.328369140625	53.92117309570313	1331.208374023438	862.9749145507813	71.01803588867188	1376.125244140625	829.04541015625	47.40821075439453	1447.192749023438	644.8304443359375	1086.0859375	1282.75732421875	708.3464965820313	185.6523590087891	1426.341552734375	662.2235717773438	184.7615966796875	1395.240478515625	698.08203125	265.6343994140625	1437.26171875	653.6897583007813	264.09130859375	1406.239990234375	716.2254028320313	681.4459228515625	1418.434814453125	667.18359375	676.0422973632813	1363.756225585938	705.0841064453125	790.5357666015625	1413.432250976563	660.4296264648438	785.607421875	1360.732666015625	779.5864868164063	464.7909545898438	1371.186645507813	
58	0.38	708.8753662109375	102.7093734741211	1034.66259765625	735.0494995117188	121.9946441650391	1117.479125976563	831.5433349609375	1063.917846679688	1125.877807617188	766.9996948242188	977.1569213867188	1063.087280273438	639.4402465820313	41.33950424194336	1077.968505859375	668.7925415039063	61.4684944152832	1039.536987304688	649.909423828125	87.69066619873047	1080.192260742188	712.8430786132813	481.4591064453125	1033.981079101563	750.3103637695313	1126.119873046875	1073.7490234375	725.1614379882813	553.1602783203125	1046.41064453125	716.6824951171875	529.216064453125	1164.406372070313	860.6812133789063	53.4749870300293	1126.324829101563	872.491943359375	69.55722045898438	1082.904296875	834.931640625	45.14466857910156	1010.452209472656	647.3021240234375	1079.9208984375	1174.027709960938	714.4454345703125	178.8359527587891	1030.460205078125	672.1278076171875	171.4719848632813	1058.303344726563	697.6309204101563	257.9747314453125	1019.54345703125	655.3801879882813	254.7836151123047	1050.673583984375	735.3120727539063	713.1122436523438	1031.519775390625	674.3200073242188	714.1153564453125	1069.461181640625	734.6871948242188	823.38134765625	1033.897338867188	679.367919921875	824.2984008789063	1073.880004882813	771.8041381835938	462.8116455078125	1081.60888671875	698.5374145507813	105.0407333374023	1420.147827148438	731.3650512695313	123.0970153808594	1339.996215820313	826.47021484375	1068.022827148438	1341.395874023438	747.2537231445313	970.4527587890625	1402.984741210938	632.33740234375	40.70988082885742	1373.821655273438	662.1443481445313	58.49557495117188	1416.946411132813	642.5571899414063	87.90573883056641	1373.422729492188	725.7413940429688	492.9282531738281	1416.635131835938	739.9508056640625	1139.804931640625	1380.192993164063	727.5421142578125	558.9044189453125	1409.898193359375	742.0990600585938	538.7636108398438	1291.752807617188	854.31005859375	53.81186294555664	1331.461059570313	862.9761352539063	71.01744079589844	1376.11865234375	829.0369262695313	47.40182495117188	1447.184326171875	644.8389892578125	1086.09130859375	1282.747314453125	708.3380126953125	185.6528015136719	1426.346313476563	662.2232666015625	184.7636108398438	1395.243896484375	698.0765991210938	265.6361389160156	1437.261474609375	653.68994140625	264.0953369140625	1406.238037109375	716.2295532226563	681.4481201171875	1418.434448242188	667.1842041015625	676.0364990234375	1363.75	705.0858154296875	790.53271484375	1413.435180664063	660.4279174804688	785.6128540039063	1360.72802734375	779.5914916992188	464.7851257324219	1371.186645507813	
59	0.3866666666666667	708.8675537109375	102.7061233520508	1034.662231445313	735.0452270507813	121.9975509643555	1117.47265625	831.5508422851563	1063.923583984375	1125.86669921875	767.0238037109375	977.1435546875	1063.092529296875	639.4358520507813	41.34429550170898	1077.962036132813	668.787841796875	61.48037338256836	1039.53857421875	649.9089965820313	87.68756866455078	1080.19140625	712.8222045898438	481.4578857421875	1033.976440429688	750.3411254882813	1126.119140625	1073.750122070313	725.1453247070313	553.159423828125	1046.407836914063	716.6674194335938	529.2057495117188	1164.400146484375	860.6925048828125	53.48266983032227	1126.321533203125	872.5020751953125	69.55410003662109	1082.897094726563	834.9309692382813	45.14408874511719	1010.450439453125	647.3124389648438	1079.919067382813	1174.015991210938	714.4476318359375	178.8421478271484	1030.45654296875	672.1265869140625	171.4799346923828	1058.294311523438	697.6278076171875	257.9780578613281	1019.531066894531	655.3770141601563	254.7773590087891	1050.670043945313	735.3209228515625	713.1121215820313	1031.518432617188	674.3214111328125	714.1145629882813	1069.452270507813	734.6968994140625	823.3834838867188	1033.891723632813	679.3748168945313	824.3059692382813	1073.860107421875	771.7993774414063	462.8074340820313	1081.611694335938	698.5221557617188	105.0498428344727	1420.153076171875	731.3609008789063	123.085693359375	1339.99609375	826.4833984375	1068.01904296875	1341.388671875	747.2557373046875	970.453857421875	1402.965576171875	632.3419189453125	40.70552825927734	1373.817260742188	662.1475219726563	58.49888610839844	1416.943603515625	642.5595703125	87.89707183837891	1373.411376953125	725.7467041015625	492.9335632324219	1416.637573242188	739.9393310546875	1139.800659179688	1380.18603515625	727.5369873046875	558.9048461914063	1409.896362304688	742.09765625	538.7655639648438	1291.7431640625	854.3318481445313	53.93551635742188	1331.199951171875	862.9774780273438	71.02147674560547	1376.118041992188	829.0529174804688	47.41261291503906	1447.195068359375	644.8431396484375	1086.096435546875	1282.73046875	708.336669921875	185.6575775146484	1426.33984375	662.2235107421875	184.7616577148438	1395.243774414063	698.0662231445313	265.6421508789063	1437.258056640625	653.6844482421875	264.0950317382813	1406.2373046875	716.225341796875	681.4487915039063	1418.423706054688	667.1759643554688	676.0307006835938	1363.736206054688	705.0801391601563	790.52880859375	1413.4267578125	660.4337158203125	785.6058349609375	1360.72509765625	779.5905151367188	464.7872314453125	1371.187866210938	
60	0.3933333333333334	708.8697509765625	102.7130889892578	1034.655639648438	735.044677734375	121.9954452514648	1117.474365234375	831.5604858398438	1063.913330078125	1125.867797851563	767.0155029296875	977.1525268554688	1063.07861328125	639.4366455078125	41.34280395507813	1077.95947265625	668.7882080078125	61.48390960693359	1039.5283203125	649.902099609375	87.6898193359375	1080.1904296875	712.81787109375	481.4664001464844	1033.964599609375	750.36572265625	1126.136962890625	1073.736572265625	725.1532592773438	553.154052734375	1046.40625	716.6610107421875	529.20751953125	1164.404418945313	860.6895751953125	53.48565292358398	1126.321533203125	872.492431640625	69.55246734619141	1082.894287109375	834.9374389648438	45.14703369140625	1010.446716308594	647.3242797851563	1079.928466796875	1173.993774414063	714.4468383789063	178.8347473144531	1030.456176757813	672.1266479492188	171.4765625	1058.294189453125	697.6282348632813	257.9734497070313	1019.531311035156	655.3776245117188	254.7730102539063	1050.654907226563	735.3300170898438	713.0965576171875	1031.512939453125	674.326416015625	714.1106567382813	1069.439697265625	734.6978759765625	823.3818359375	1033.888671875	679.3789672851563	824.2988891601563	1073.854370117188	771.7910766601563	462.8058776855469	1081.61279296875	698.53173828125	105.0438613891602	1420.144653320313	731.36083984375	123.0933532714844	1339.990600585938	826.486572265625	1068.021118164063	1341.387817382813	747.2601318359375	970.44775390625	1402.958251953125	632.3358764648438	40.71788787841797	1373.813110351563	662.1427612304688	58.49851989746094	1416.944091796875	642.5567016601563	87.89798736572266	1373.4189453125	725.7394409179688	492.9322509765625	1416.63916015625	739.9374389648438	1139.813720703125	1380.189697265625	727.5509033203125	558.9075317382813	1409.885986328125	742.1124877929688	538.7684936523438	1291.732177734375	854.3447875976563	53.93129730224609	1331.2060546875	862.9788208007813	71.01610565185547	1376.1181640625	829.0548095703125	47.3982048034668	1447.186889648438	644.8447875976563	1086.100341796875	1282.71435546875	708.3427124023438	185.6537780761719	1426.33349609375	662.2239379882813	184.7637481689453	1395.238647460938	698.0733642578125	265.6374206542969	1437.249633789063	653.68310546875	264.0958862304688	1406.239013671875	716.2269897460938	681.4447631835938	1418.41162109375	667.1754150390625	676.04248046875	1363.740478515625	705.081298828125	790.5380859375	1413.416137695313	660.421630859375	785.6102294921875	1360.7177734375	779.5855102539063	464.787841796875	1371.186645507813	
